<svg width="954" height="319" viewBox="0 0 954 319" fill="none" xmlns="http://www.w3.org/2000/svg">
<rect width="954" height="319" fill="white"/>
<g filter="url(#filter0_d)">
<rect x="257" y="89" width="165" height="204" fill="white"/>
</g>
<g filter="url(#filter1_d)">
<rect x="422" y="89" width="165" height="204" fill="white"/>
</g>
<g filter="url(#filter2_d)">
<rect x="587" y="89" width="165" height="204" fill="white"/>
</g>
<g filter="url(#filter3_d)">
<rect x="752" y="89" width="165" height="204" fill="white"/>
</g>
<path d="M456.469 61.4648H449.309V69H447.059V51.9375H457.629V53.7891H449.309V59.625H456.469V61.4648ZM462.34 69H460.172V51H462.34V69ZM473.648 69C473.523 68.75 473.422 68.3047 473.344 67.6641C472.336 68.7109 471.133 69.2344 469.734 69.2344C468.484 69.2344 467.457 68.8828 466.652 68.1797C465.855 67.4688 465.457 66.5703 465.457 65.4844C465.457 64.1641 465.957 63.1406 466.957 62.4141C467.965 61.6797 469.379 61.3125 471.199 61.3125H473.309V60.3164C473.309 59.5586 473.082 58.957 472.629 58.5117C472.176 58.0586 471.508 57.832 470.625 57.832C469.852 57.832 469.203 58.0273 468.68 58.418C468.156 58.8086 467.895 59.2812 467.895 59.8359H465.715C465.715 59.2031 465.938 58.5938 466.383 58.0078C466.836 57.4141 467.445 56.9453 468.211 56.6016C468.984 56.2578 469.832 56.0859 470.754 56.0859C472.215 56.0859 473.359 56.4531 474.188 57.1875C475.016 57.9141 475.445 58.918 475.477 60.1992V66.0352C475.477 67.1992 475.625 68.125 475.922 68.8125V69H473.648ZM470.051 67.3477C470.73 67.3477 471.375 67.1719 471.984 66.8203C472.594 66.4688 473.035 66.0117 473.309 65.4492V62.8477H471.609C468.953 62.8477 467.625 63.625 467.625 65.1797C467.625 65.8594 467.852 66.3906 468.305 66.7734C468.758 67.1562 469.34 67.3477 470.051 67.3477ZM481.816 53.25V56.3203H484.184V57.9961H481.816V65.8594C481.816 66.3672 481.922 66.75 482.133 67.0078C482.344 67.2578 482.703 67.3828 483.211 67.3828C483.461 67.3828 483.805 67.3359 484.242 67.2422V69C483.672 69.1562 483.117 69.2344 482.578 69.2344C481.609 69.2344 480.879 68.9414 480.387 68.3555C479.895 67.7695 479.648 66.9375 479.648 65.8594V57.9961H477.34V56.3203H479.648V53.25H481.816ZM487.066 69V51.9375H492.645C494.496 51.9375 495.887 52.3203 496.816 53.0859C497.754 53.8516 498.223 54.9844 498.223 56.4844C498.223 57.2812 497.996 57.9883 497.543 58.6055C497.09 59.2148 496.473 59.6875 495.691 60.0234C496.613 60.2812 497.34 60.7734 497.871 61.5C498.41 62.2188 498.68 63.0781 498.68 64.0781C498.68 65.6094 498.184 66.8125 497.191 67.6875C496.199 68.5625 494.797 69 492.984 69H487.066ZM489.316 61.0195V67.1602H493.031C494.078 67.1602 494.902 66.8906 495.504 66.3516C496.113 65.8047 496.418 65.0547 496.418 64.1016C496.418 62.0469 495.301 61.0195 493.066 61.0195H489.316ZM489.316 59.2148H492.715C493.699 59.2148 494.484 58.9688 495.07 58.4766C495.664 57.9844 495.961 57.3164 495.961 56.4727C495.961 55.5352 495.688 54.8555 495.141 54.4336C494.594 54.0039 493.762 53.7891 492.645 53.7891H489.316V59.2148ZM509.508 67.7461C508.664 68.7383 507.426 69.2344 505.793 69.2344C504.441 69.2344 503.41 68.8438 502.699 68.0625C501.996 67.2734 501.641 66.1094 501.633 64.5703V56.3203H503.801V64.5117C503.801 66.4336 504.582 67.3945 506.145 67.3945C507.801 67.3945 508.902 66.7773 509.449 65.543V56.3203H511.617V69H509.555L509.508 67.7461ZM515.988 69V57.9961H513.984V56.3203H515.988V55.0195C515.988 53.6602 516.352 52.6094 517.078 51.8672C517.805 51.125 518.832 50.7539 520.16 50.7539C520.66 50.7539 521.156 50.8203 521.648 50.9531L521.531 52.7109C521.164 52.6406 520.773 52.6055 520.359 52.6055C519.656 52.6055 519.113 52.8125 518.73 53.2266C518.348 53.6328 518.156 54.2188 518.156 54.9844V56.3203H520.863V57.9961H518.156V69H515.988ZM524.332 69V57.9961H522.328V56.3203H524.332V55.0195C524.332 53.6602 524.695 52.6094 525.422 51.8672C526.148 51.125 527.176 50.7539 528.504 50.7539C529.004 50.7539 529.5 50.8203 529.992 50.9531L529.875 52.7109C529.508 52.6406 529.117 52.6055 528.703 52.6055C528 52.6055 527.457 52.8125 527.074 53.2266C526.691 53.6328 526.5 54.2188 526.5 54.9844V56.3203H529.207V57.9961H526.5V69H524.332ZM536.59 69.2344C534.871 69.2344 533.473 68.6719 532.395 67.5469C531.316 66.4141 530.777 64.9023 530.777 63.0117V62.6133C530.777 61.3555 531.016 60.2344 531.492 59.25C531.977 58.2578 532.648 57.4844 533.508 56.9297C534.375 56.3672 535.312 56.0859 536.32 56.0859C537.969 56.0859 539.25 56.6289 540.164 57.7148C541.078 58.8008 541.535 60.3555 541.535 62.3789V63.2812H532.945C532.977 64.5312 533.34 65.543 534.035 66.3164C534.738 67.082 535.629 67.4648 536.707 67.4648C537.473 67.4648 538.121 67.3086 538.652 66.9961C539.184 66.6836 539.648 66.2695 540.047 65.7539L541.371 66.7852C540.309 68.418 538.715 69.2344 536.59 69.2344ZM536.32 57.8672C535.445 57.8672 534.711 58.1875 534.117 58.8281C533.523 59.4609 533.156 60.3516 533.016 61.5H539.367V61.3359C539.305 60.2344 539.008 59.3828 538.477 58.7812C537.945 58.1719 537.227 57.8672 536.32 57.8672ZM550.184 58.2656C549.855 58.2109 549.5 58.1836 549.117 58.1836C547.695 58.1836 546.73 58.7891 546.223 60V69H544.055V56.3203H546.164L546.199 57.7852C546.91 56.6523 547.918 56.0859 549.223 56.0859C549.645 56.0859 549.965 56.1406 550.184 56.25V58.2656ZM559.57 65.6367C559.57 65.0508 559.348 64.5977 558.902 64.2773C558.465 63.9492 557.695 63.668 556.594 63.4336C555.5 63.1992 554.629 62.918 553.98 62.5898C553.34 62.2617 552.863 61.8711 552.551 61.418C552.246 60.9648 552.094 60.4258 552.094 59.8008C552.094 58.7617 552.531 57.8828 553.406 57.1641C554.289 56.4453 555.414 56.0859 556.781 56.0859C558.219 56.0859 559.383 56.457 560.273 57.1992C561.172 57.9414 561.621 58.8906 561.621 60.0469H559.441C559.441 59.4531 559.188 58.9414 558.68 58.5117C558.18 58.082 557.547 57.8672 556.781 57.8672C555.992 57.8672 555.375 58.0391 554.93 58.3828C554.484 58.7266 554.262 59.1758 554.262 59.7305C554.262 60.2539 554.469 60.6484 554.883 60.9141C555.297 61.1797 556.043 61.4336 557.121 61.6758C558.207 61.918 559.086 62.207 559.758 62.543C560.43 62.8789 560.926 63.2852 561.246 63.7617C561.574 64.2305 561.738 64.8047 561.738 65.4844C561.738 66.6172 561.285 67.5273 560.379 68.2148C559.473 68.8945 558.297 69.2344 556.852 69.2344C555.836 69.2344 554.938 69.0547 554.156 68.6953C553.375 68.3359 552.762 67.8359 552.316 67.1953C551.879 66.5469 551.66 65.8477 551.66 65.0977H553.828C553.867 65.8242 554.156 66.4023 554.695 66.832C555.242 67.2539 555.961 67.4648 556.852 67.4648C557.672 67.4648 558.328 67.3008 558.82 66.9727C559.32 66.6367 559.57 66.1914 559.57 65.6367Z" fill="black"/>
<path d="M30.4297 123.395C28.5 122.84 27.0938 122.16 26.2109 121.355C25.3359 120.543 24.8984 119.543 24.8984 118.355C24.8984 117.012 25.4336 115.902 26.5039 115.027C27.582 114.145 28.9805 113.703 30.6992 113.703C31.8711 113.703 32.9141 113.93 33.8281 114.383C34.75 114.836 35.4609 115.461 35.9609 116.258C36.4688 117.055 36.7227 117.926 36.7227 118.871H34.4609C34.4609 117.84 34.1328 117.031 33.4766 116.445C32.8203 115.852 31.8945 115.555 30.6992 115.555C29.5898 115.555 28.7227 115.801 28.0977 116.293C27.4805 116.777 27.1719 117.453 27.1719 118.32C27.1719 119.016 27.4648 119.605 28.0508 120.09C28.6445 120.566 29.6484 121.004 31.0625 121.402C32.4844 121.801 33.5938 122.242 34.3906 122.727C35.1953 123.203 35.7891 123.762 36.1719 124.402C36.5625 125.043 36.7578 125.797 36.7578 126.664C36.7578 128.047 36.2188 129.156 35.1406 129.992C34.0625 130.82 32.6211 131.234 30.8164 131.234C29.6445 131.234 28.5508 131.012 27.5352 130.566C26.5195 130.113 25.7344 129.496 25.1797 128.715C24.6328 127.934 24.3594 127.047 24.3594 126.055H26.6211C26.6211 127.086 27 127.902 27.7578 128.504C28.5234 129.098 29.543 129.395 30.8164 129.395C32.0039 129.395 32.9141 129.152 33.5469 128.668C34.1797 128.184 34.4961 127.523 34.4961 126.688C34.4961 125.852 34.2031 125.207 33.6172 124.754C33.0312 124.293 31.9688 123.84 30.4297 123.395ZM44.3984 129.465C45.1719 129.465 45.8477 129.23 46.4258 128.762C47.0039 128.293 47.3242 127.707 47.3867 127.004H49.4375C49.3984 127.73 49.1484 128.422 48.6875 129.078C48.2266 129.734 47.6094 130.258 46.8359 130.648C46.0703 131.039 45.2578 131.234 44.3984 131.234C42.6719 131.234 41.2969 130.66 40.2734 129.512C39.2578 128.355 38.75 126.777 38.75 124.777V124.414C38.75 123.18 38.9766 122.082 39.4297 121.121C39.8828 120.16 40.5312 119.414 41.375 118.883C42.2266 118.352 43.2305 118.086 44.3867 118.086C45.8086 118.086 46.9883 118.512 47.9258 119.363C48.8711 120.215 49.375 121.32 49.4375 122.68H47.3867C47.3242 121.859 47.0117 121.188 46.4492 120.664C45.8945 120.133 45.207 119.867 44.3867 119.867C43.2852 119.867 42.4297 120.266 41.8203 121.062C41.2188 121.852 40.918 122.996 40.918 124.496V124.906C40.918 126.367 41.2188 127.492 41.8203 128.281C42.4219 129.07 43.2812 129.465 44.3984 129.465ZM54.043 119.855C55.0039 118.676 56.2539 118.086 57.793 118.086C60.4727 118.086 61.8242 119.598 61.8477 122.621V131H59.6797V122.609C59.6719 121.695 59.4609 121.02 59.0469 120.582C58.6406 120.145 58.0039 119.926 57.1367 119.926C56.4336 119.926 55.8164 120.113 55.2852 120.488C54.7539 120.863 54.3398 121.355 54.043 121.965V131H51.875V113H54.043V119.855ZM70.3555 131.234C68.6367 131.234 67.2383 130.672 66.1602 129.547C65.082 128.414 64.543 126.902 64.543 125.012V124.613C64.543 123.355 64.7812 122.234 65.2578 121.25C65.7422 120.258 66.4141 119.484 67.2734 118.93C68.1406 118.367 69.0781 118.086 70.0859 118.086C71.7344 118.086 73.0156 118.629 73.9297 119.715C74.8438 120.801 75.3008 122.355 75.3008 124.379V125.281H66.7109C66.7422 126.531 67.1055 127.543 67.8008 128.316C68.5039 129.082 69.3945 129.465 70.4727 129.465C71.2383 129.465 71.8867 129.309 72.418 128.996C72.9492 128.684 73.4141 128.27 73.8125 127.754L75.1367 128.785C74.0742 130.418 72.4805 131.234 70.3555 131.234ZM70.0859 119.867C69.2109 119.867 68.4766 120.188 67.8828 120.828C67.2891 121.461 66.9219 122.352 66.7812 123.5H73.1328V123.336C73.0703 122.234 72.7734 121.383 72.2422 120.781C71.7109 120.172 70.9922 119.867 70.0859 119.867ZM79.8594 118.32L79.918 119.727C80.8477 118.633 82.1016 118.086 83.6797 118.086C85.4531 118.086 86.6602 118.766 87.3008 120.125C87.7227 119.516 88.2695 119.023 88.9414 118.648C89.6211 118.273 90.4219 118.086 91.3438 118.086C94.125 118.086 95.5391 119.559 95.5859 122.504V131H93.418V122.633C93.418 121.727 93.2109 121.051 92.7969 120.605C92.3828 120.152 91.6875 119.926 90.7109 119.926C89.9062 119.926 89.2383 120.168 88.707 120.652C88.1758 121.129 87.8672 121.773 87.7812 122.586V131H85.6016V122.691C85.6016 120.848 84.6992 119.926 82.8945 119.926C81.4727 119.926 80.5 120.531 79.9766 121.742V131H77.8086V118.32H79.8594ZM106.695 131C106.57 130.75 106.469 130.305 106.391 129.664C105.383 130.711 104.18 131.234 102.781 131.234C101.531 131.234 100.504 130.883 99.6992 130.18C98.9023 129.469 98.5039 128.57 98.5039 127.484C98.5039 126.164 99.0039 125.141 100.004 124.414C101.012 123.68 102.426 123.312 104.246 123.312H106.355V122.316C106.355 121.559 106.129 120.957 105.676 120.512C105.223 120.059 104.555 119.832 103.672 119.832C102.898 119.832 102.25 120.027 101.727 120.418C101.203 120.809 100.941 121.281 100.941 121.836H98.7617C98.7617 121.203 98.9844 120.594 99.4297 120.008C99.8828 119.414 100.492 118.945 101.258 118.602C102.031 118.258 102.879 118.086 103.801 118.086C105.262 118.086 106.406 118.453 107.234 119.188C108.062 119.914 108.492 120.918 108.523 122.199V128.035C108.523 129.199 108.672 130.125 108.969 130.812V131H106.695ZM103.098 129.348C103.777 129.348 104.422 129.172 105.031 128.82C105.641 128.469 106.082 128.012 106.355 127.449V124.848H104.656C102 124.848 100.672 125.625 100.672 127.18C100.672 127.859 100.898 128.391 101.352 128.773C101.805 129.156 102.387 129.348 103.098 129.348ZM123.242 123.395C121.312 122.84 119.906 122.16 119.023 121.355C118.148 120.543 117.711 119.543 117.711 118.355C117.711 117.012 118.246 115.902 119.316 115.027C120.395 114.145 121.793 113.703 123.512 113.703C124.684 113.703 125.727 113.93 126.641 114.383C127.562 114.836 128.273 115.461 128.773 116.258C129.281 117.055 129.535 117.926 129.535 118.871H127.273C127.273 117.84 126.945 117.031 126.289 116.445C125.633 115.852 124.707 115.555 123.512 115.555C122.402 115.555 121.535 115.801 120.91 116.293C120.293 116.777 119.984 117.453 119.984 118.32C119.984 119.016 120.277 119.605 120.863 120.09C121.457 120.566 122.461 121.004 123.875 121.402C125.297 121.801 126.406 122.242 127.203 122.727C128.008 123.203 128.602 123.762 128.984 124.402C129.375 125.043 129.57 125.797 129.57 126.664C129.57 128.047 129.031 129.156 127.953 129.992C126.875 130.82 125.434 131.234 123.629 131.234C122.457 131.234 121.363 131.012 120.348 130.566C119.332 130.113 118.547 129.496 117.992 128.715C117.445 127.934 117.172 127.047 117.172 126.055H119.434C119.434 127.086 119.812 127.902 120.57 128.504C121.336 129.098 122.355 129.395 123.629 129.395C124.816 129.395 125.727 129.152 126.359 128.668C126.992 128.184 127.309 127.523 127.309 126.688C127.309 125.852 127.016 125.207 126.43 124.754C125.844 124.293 124.781 123.84 123.242 123.395ZM136.273 127.824L139.227 118.32H141.547L136.449 132.957C135.66 135.066 134.406 136.121 132.688 136.121L132.277 136.086L131.469 135.934V134.176L132.055 134.223C132.789 134.223 133.359 134.074 133.766 133.777C134.18 133.48 134.52 132.938 134.785 132.148L135.266 130.859L130.742 118.32H133.109L136.273 127.824ZM145.543 118.32L145.613 119.914C146.582 118.695 147.848 118.086 149.41 118.086C152.09 118.086 153.441 119.598 153.465 122.621V131H151.297V122.609C151.289 121.695 151.078 121.02 150.664 120.582C150.258 120.145 149.621 119.926 148.754 119.926C148.051 119.926 147.434 120.113 146.902 120.488C146.371 120.863 145.957 121.355 145.66 121.965V131H143.492V118.32H145.543ZM159.676 115.25V118.32H162.043V119.996H159.676V127.859C159.676 128.367 159.781 128.75 159.992 129.008C160.203 129.258 160.562 129.383 161.07 129.383C161.32 129.383 161.664 129.336 162.102 129.242V131C161.531 131.156 160.977 131.234 160.438 131.234C159.469 131.234 158.738 130.941 158.246 130.355C157.754 129.77 157.508 128.938 157.508 127.859V119.996H155.199V118.32H157.508V115.25H159.676ZM172.414 131C172.289 130.75 172.188 130.305 172.109 129.664C171.102 130.711 169.898 131.234 168.5 131.234C167.25 131.234 166.223 130.883 165.418 130.18C164.621 129.469 164.223 128.57 164.223 127.484C164.223 126.164 164.723 125.141 165.723 124.414C166.73 123.68 168.145 123.312 169.965 123.312H172.074V122.316C172.074 121.559 171.848 120.957 171.395 120.512C170.941 120.059 170.273 119.832 169.391 119.832C168.617 119.832 167.969 120.027 167.445 120.418C166.922 120.809 166.66 121.281 166.66 121.836H164.48C164.48 121.203 164.703 120.594 165.148 120.008C165.602 119.414 166.211 118.945 166.977 118.602C167.75 118.258 168.598 118.086 169.52 118.086C170.98 118.086 172.125 118.453 172.953 119.188C173.781 119.914 174.211 120.918 174.242 122.199V128.035C174.242 129.199 174.391 130.125 174.688 130.812V131H172.414ZM168.816 129.348C169.496 129.348 170.141 129.172 170.75 128.82C171.359 128.469 171.801 128.012 172.074 127.449V124.848H170.375C167.719 124.848 166.391 125.625 166.391 127.18C166.391 127.859 166.617 128.391 167.07 128.773C167.523 129.156 168.105 129.348 168.816 129.348ZM181.895 122.949L184.707 118.32H187.238L183.09 124.59L187.367 131H184.859L181.93 126.254L179 131H176.48L180.758 124.59L176.609 118.32H179.117L181.895 122.949ZM189.98 132.465H188.117L195.242 113.938H197.094L189.98 132.465ZM202.191 131H199.941V113.938H202.191V131ZM206.316 131V113.938H211.133C212.617 113.938 213.93 114.266 215.07 114.922C216.211 115.578 217.09 116.512 217.707 117.723C218.332 118.934 218.648 120.324 218.656 121.895V122.984C218.656 124.594 218.344 126.004 217.719 127.215C217.102 128.426 216.215 129.355 215.059 130.004C213.91 130.652 212.57 130.984 211.039 131H206.316ZM208.566 115.789V129.16H210.934C212.668 129.16 214.016 128.621 214.977 127.543C215.945 126.465 216.43 124.93 216.43 122.938V121.941C216.43 120.004 215.973 118.5 215.059 117.43C214.152 116.352 212.863 115.805 211.191 115.789H208.566ZM224.328 129.16H232.414V131H222.066V113.938H224.328V129.16Z" fill="black"/>
<path d="M26.0234 191.395C24.0938 190.84 22.6875 190.16 21.8047 189.355C20.9297 188.543 20.4922 187.543 20.4922 186.355C20.4922 185.012 21.0273 183.902 22.0977 183.027C23.1758 182.145 24.5742 181.703 26.293 181.703C27.4648 181.703 28.5078 181.93 29.4219 182.383C30.3438 182.836 31.0547 183.461 31.5547 184.258C32.0625 185.055 32.3164 185.926 32.3164 186.871H30.0547C30.0547 185.84 29.7266 185.031 29.0703 184.445C28.4141 183.852 27.4883 183.555 26.293 183.555C25.1836 183.555 24.3164 183.801 23.6914 184.293C23.0742 184.777 22.7656 185.453 22.7656 186.32C22.7656 187.016 23.0586 187.605 23.6445 188.09C24.2383 188.566 25.2422 189.004 26.6562 189.402C28.0781 189.801 29.1875 190.242 29.9844 190.727C30.7891 191.203 31.3828 191.762 31.7656 192.402C32.1562 193.043 32.3516 193.797 32.3516 194.664C32.3516 196.047 31.8125 197.156 30.7344 197.992C29.6562 198.82 28.2148 199.234 26.4102 199.234C25.2383 199.234 24.1445 199.012 23.1289 198.566C22.1133 198.113 21.3281 197.496 20.7734 196.715C20.2266 195.934 19.9531 195.047 19.9531 194.055H22.2148C22.2148 195.086 22.5938 195.902 23.3516 196.504C24.1172 197.098 25.1367 197.395 26.4102 197.395C27.5977 197.395 28.5078 197.152 29.1406 196.668C29.7734 196.184 30.0898 195.523 30.0898 194.688C30.0898 193.852 29.7969 193.207 29.2109 192.754C28.625 192.293 27.5625 191.84 26.0234 191.395ZM40.168 199.234C38.4492 199.234 37.0508 198.672 35.9727 197.547C34.8945 196.414 34.3555 194.902 34.3555 193.012V192.613C34.3555 191.355 34.5938 190.234 35.0703 189.25C35.5547 188.258 36.2266 187.484 37.0859 186.93C37.9531 186.367 38.8906 186.086 39.8984 186.086C41.5469 186.086 42.8281 186.629 43.7422 187.715C44.6562 188.801 45.1133 190.355 45.1133 192.379V193.281H36.5234C36.5547 194.531 36.918 195.543 37.6133 196.316C38.3164 197.082 39.207 197.465 40.2852 197.465C41.0508 197.465 41.6992 197.309 42.2305 196.996C42.7617 196.684 43.2266 196.27 43.625 195.754L44.9492 196.785C43.8867 198.418 42.293 199.234 40.168 199.234ZM39.8984 187.867C39.0234 187.867 38.2891 188.188 37.6953 188.828C37.1016 189.461 36.7344 190.352 36.5938 191.5H42.9453V191.336C42.8828 190.234 42.5859 189.383 42.0547 188.781C41.5234 188.172 40.8047 187.867 39.8984 187.867ZM53.7617 188.266C53.4336 188.211 53.0781 188.184 52.6953 188.184C51.2734 188.184 50.3086 188.789 49.8008 190V199H47.6328V186.32H49.7422L49.7773 187.785C50.4883 186.652 51.4961 186.086 52.8008 186.086C53.2227 186.086 53.543 186.141 53.7617 186.25V188.266ZM58.1211 199H55.9531V186.32H58.1211V199ZM55.7773 182.957C55.7773 182.605 55.8828 182.309 56.0938 182.066C56.3125 181.824 56.6328 181.703 57.0547 181.703C57.4766 181.703 57.7969 181.824 58.0156 182.066C58.2344 182.309 58.3438 182.605 58.3438 182.957C58.3438 183.309 58.2344 183.602 58.0156 183.836C57.7969 184.07 57.4766 184.188 57.0547 184.188C56.6328 184.188 56.3125 184.07 56.0938 183.836C55.8828 183.602 55.7773 183.309 55.7773 182.957ZM69.4297 199C69.3047 198.75 69.2031 198.305 69.125 197.664C68.1172 198.711 66.9141 199.234 65.5156 199.234C64.2656 199.234 63.2383 198.883 62.4336 198.18C61.6367 197.469 61.2383 196.57 61.2383 195.484C61.2383 194.164 61.7383 193.141 62.7383 192.414C63.7461 191.68 65.1602 191.312 66.9805 191.312H69.0898V190.316C69.0898 189.559 68.8633 188.957 68.4102 188.512C67.957 188.059 67.2891 187.832 66.4062 187.832C65.6328 187.832 64.9844 188.027 64.4609 188.418C63.9375 188.809 63.6758 189.281 63.6758 189.836H61.4961C61.4961 189.203 61.7188 188.594 62.1641 188.008C62.6172 187.414 63.2266 186.945 63.9922 186.602C64.7656 186.258 65.6133 186.086 66.5352 186.086C67.9961 186.086 69.1406 186.453 69.9688 187.188C70.7969 187.914 71.2266 188.918 71.2578 190.199V196.035C71.2578 197.199 71.4062 198.125 71.7031 198.812V199H69.4297ZM65.832 197.348C66.5117 197.348 67.1562 197.172 67.7656 196.82C68.375 196.469 68.8164 196.012 69.0898 195.449V192.848H67.3906C64.7344 192.848 63.4062 193.625 63.4062 195.18C63.4062 195.859 63.6328 196.391 64.0859 196.773C64.5391 197.156 65.1211 197.348 65.832 197.348ZM77.0117 199H74.8438V181H77.0117V199ZM82.8477 199H80.6797V186.32H82.8477V199ZM80.5039 182.957C80.5039 182.605 80.6094 182.309 80.8203 182.066C81.0391 181.824 81.3594 181.703 81.7812 181.703C82.2031 181.703 82.5234 181.824 82.7422 182.066C82.9609 182.309 83.0703 182.605 83.0703 182.957C83.0703 183.309 82.9609 183.602 82.7422 183.836C82.5234 184.07 82.2031 184.188 81.7812 184.188C81.3594 184.188 81.0391 184.07 80.8203 183.836C80.6094 183.602 80.5039 183.309 80.5039 182.957ZM88.3672 197.23H95.7852V199H85.7188V197.406L92.7148 188.113H85.8242V186.32H95.4336V187.855L88.3672 197.23ZM106.062 199C105.938 198.75 105.836 198.305 105.758 197.664C104.75 198.711 103.547 199.234 102.148 199.234C100.898 199.234 99.8711 198.883 99.0664 198.18C98.2695 197.469 97.8711 196.57 97.8711 195.484C97.8711 194.164 98.3711 193.141 99.3711 192.414C100.379 191.68 101.793 191.312 103.613 191.312H105.723V190.316C105.723 189.559 105.496 188.957 105.043 188.512C104.59 188.059 103.922 187.832 103.039 187.832C102.266 187.832 101.617 188.027 101.094 188.418C100.57 188.809 100.309 189.281 100.309 189.836H98.1289C98.1289 189.203 98.3516 188.594 98.7969 188.008C99.25 187.414 99.8594 186.945 100.625 186.602C101.398 186.258 102.246 186.086 103.168 186.086C104.629 186.086 105.773 186.453 106.602 187.188C107.43 187.914 107.859 188.918 107.891 190.199V196.035C107.891 197.199 108.039 198.125 108.336 198.812V199H106.062ZM102.465 197.348C103.145 197.348 103.789 197.172 104.398 196.82C105.008 196.469 105.449 196.012 105.723 195.449V192.848H104.023C101.367 192.848 100.039 193.625 100.039 195.18C100.039 195.859 100.266 196.391 100.719 196.773C101.172 197.156 101.754 197.348 102.465 197.348ZM114.23 183.25V186.32H116.598V187.996H114.23V195.859C114.23 196.367 114.336 196.75 114.547 197.008C114.758 197.258 115.117 197.383 115.625 197.383C115.875 197.383 116.219 197.336 116.656 197.242V199C116.086 199.156 115.531 199.234 114.992 199.234C114.023 199.234 113.293 198.941 112.801 198.355C112.309 197.77 112.062 196.938 112.062 195.859V187.996H109.754V186.32H112.062V183.25H114.23ZM121.496 199H119.328V186.32H121.496V199ZM119.152 182.957C119.152 182.605 119.258 182.309 119.469 182.066C119.688 181.824 120.008 181.703 120.43 181.703C120.852 181.703 121.172 181.824 121.391 182.066C121.609 182.309 121.719 182.605 121.719 182.957C121.719 183.309 121.609 183.602 121.391 183.836C121.172 184.07 120.852 184.188 120.43 184.188C120.008 184.188 119.688 184.07 119.469 183.836C119.258 183.602 119.152 183.309 119.152 182.957ZM124.402 192.543C124.402 191.301 124.645 190.184 125.129 189.191C125.621 188.199 126.301 187.434 127.168 186.895C128.043 186.355 129.039 186.086 130.156 186.086C131.883 186.086 133.277 186.684 134.34 187.879C135.41 189.074 135.945 190.664 135.945 192.648V192.801C135.945 194.035 135.707 195.145 135.23 196.129C134.762 197.105 134.086 197.867 133.203 198.414C132.328 198.961 131.32 199.234 130.18 199.234C128.461 199.234 127.066 198.637 125.996 197.441C124.934 196.246 124.402 194.664 124.402 192.695V192.543ZM126.582 192.801C126.582 194.207 126.906 195.336 127.555 196.188C128.211 197.039 129.086 197.465 130.18 197.465C131.281 197.465 132.156 197.035 132.805 196.176C133.453 195.309 133.777 194.098 133.777 192.543C133.777 191.152 133.445 190.027 132.781 189.168C132.125 188.301 131.25 187.867 130.156 187.867C129.086 187.867 128.223 188.293 127.566 189.145C126.91 189.996 126.582 191.215 126.582 192.801ZM140.715 186.32L140.785 187.914C141.754 186.695 143.02 186.086 144.582 186.086C147.262 186.086 148.613 187.598 148.637 190.621V199H146.469V190.609C146.461 189.695 146.25 189.02 145.836 188.582C145.43 188.145 144.793 187.926 143.926 187.926C143.223 187.926 142.605 188.113 142.074 188.488C141.543 188.863 141.129 189.355 140.832 189.965V199H138.664V186.32H140.715ZM167.609 191.465H160.449V199H158.199V181.938H168.77V183.789H160.449V189.625H167.609V191.465ZM170.293 192.543C170.293 191.301 170.535 190.184 171.02 189.191C171.512 188.199 172.191 187.434 173.059 186.895C173.934 186.355 174.93 186.086 176.047 186.086C177.773 186.086 179.168 186.684 180.23 187.879C181.301 189.074 181.836 190.664 181.836 192.648V192.801C181.836 194.035 181.598 195.145 181.121 196.129C180.652 197.105 179.977 197.867 179.094 198.414C178.219 198.961 177.211 199.234 176.07 199.234C174.352 199.234 172.957 198.637 171.887 197.441C170.824 196.246 170.293 194.664 170.293 192.695V192.543ZM172.473 192.801C172.473 194.207 172.797 195.336 173.445 196.188C174.102 197.039 174.977 197.465 176.07 197.465C177.172 197.465 178.047 197.035 178.695 196.176C179.344 195.309 179.668 194.098 179.668 192.543C179.668 191.152 179.336 190.027 178.672 189.168C178.016 188.301 177.141 187.867 176.047 187.867C174.977 187.867 174.113 188.293 173.457 189.145C172.801 189.996 172.473 191.215 172.473 192.801ZM190.684 188.266C190.355 188.211 190 188.184 189.617 188.184C188.195 188.184 187.23 188.789 186.723 190V199H184.555V186.32H186.664L186.699 187.785C187.41 186.652 188.418 186.086 189.723 186.086C190.145 186.086 190.465 186.141 190.684 186.25V188.266ZM194.727 186.32L194.785 187.727C195.715 186.633 196.969 186.086 198.547 186.086C200.32 186.086 201.527 186.766 202.168 188.125C202.59 187.516 203.137 187.023 203.809 186.648C204.488 186.273 205.289 186.086 206.211 186.086C208.992 186.086 210.406 187.559 210.453 190.504V199H208.285V190.633C208.285 189.727 208.078 189.051 207.664 188.605C207.25 188.152 206.555 187.926 205.578 187.926C204.773 187.926 204.105 188.168 203.574 188.652C203.043 189.129 202.734 189.773 202.648 190.586V199H200.469V190.691C200.469 188.848 199.566 187.926 197.762 187.926C196.34 187.926 195.367 188.531 194.844 189.742V199H192.676V186.32H194.727ZM221.562 199C221.438 198.75 221.336 198.305 221.258 197.664C220.25 198.711 219.047 199.234 217.648 199.234C216.398 199.234 215.371 198.883 214.566 198.18C213.77 197.469 213.371 196.57 213.371 195.484C213.371 194.164 213.871 193.141 214.871 192.414C215.879 191.68 217.293 191.312 219.113 191.312H221.223V190.316C221.223 189.559 220.996 188.957 220.543 188.512C220.09 188.059 219.422 187.832 218.539 187.832C217.766 187.832 217.117 188.027 216.594 188.418C216.07 188.809 215.809 189.281 215.809 189.836H213.629C213.629 189.203 213.852 188.594 214.297 188.008C214.75 187.414 215.359 186.945 216.125 186.602C216.898 186.258 217.746 186.086 218.668 186.086C220.129 186.086 221.273 186.453 222.102 187.188C222.93 187.914 223.359 188.918 223.391 190.199V196.035C223.391 197.199 223.539 198.125 223.836 198.812V199H221.562ZM217.965 197.348C218.645 197.348 219.289 197.172 219.898 196.82C220.508 196.469 220.949 196.012 221.223 195.449V192.848H219.523C216.867 192.848 215.539 193.625 215.539 195.18C215.539 195.859 215.766 196.391 216.219 196.773C216.672 197.156 217.254 197.348 217.965 197.348ZM229.73 183.25V186.32H232.098V187.996H229.73V195.859C229.73 196.367 229.836 196.75 230.047 197.008C230.258 197.258 230.617 197.383 231.125 197.383C231.375 197.383 231.719 197.336 232.156 197.242V199C231.586 199.156 231.031 199.234 230.492 199.234C229.523 199.234 228.793 198.941 228.301 198.355C227.809 197.77 227.562 196.938 227.562 195.859V187.996H225.254V186.32H227.562V183.25H229.73Z" fill="black"/>
<path d="M69.5938 261.586C69.3828 263.391 68.7148 264.785 67.5898 265.77C66.4727 266.746 64.9844 267.234 63.125 267.234C61.1094 267.234 59.4922 266.512 58.2734 265.066C57.0625 263.621 56.457 261.688 56.457 259.266V257.625C56.457 256.039 56.7383 254.645 57.3008 253.441C57.8711 252.238 58.6758 251.316 59.7148 250.676C60.7539 250.027 61.957 249.703 63.3242 249.703C65.1367 249.703 66.5898 250.211 67.6836 251.227C68.7773 252.234 69.4141 253.633 69.5938 255.422H67.332C67.1367 254.062 66.7109 253.078 66.0547 252.469C65.4062 251.859 64.4961 251.555 63.3242 251.555C61.8867 251.555 60.7578 252.086 59.9375 253.148C59.125 254.211 58.7188 255.723 58.7188 257.684V259.336C58.7188 261.188 59.1055 262.66 59.8789 263.754C60.6523 264.848 61.7344 265.395 63.125 265.395C64.375 265.395 65.332 265.113 65.9961 264.551C66.668 263.98 67.1133 262.992 67.332 261.586H69.5938ZM71.7617 260.543C71.7617 259.301 72.0039 258.184 72.4883 257.191C72.9805 256.199 73.6602 255.434 74.5273 254.895C75.4023 254.355 76.3984 254.086 77.5156 254.086C79.2422 254.086 80.6367 254.684 81.6992 255.879C82.7695 257.074 83.3047 258.664 83.3047 260.648V260.801C83.3047 262.035 83.0664 263.145 82.5898 264.129C82.1211 265.105 81.4453 265.867 80.5625 266.414C79.6875 266.961 78.6797 267.234 77.5391 267.234C75.8203 267.234 74.4258 266.637 73.3555 265.441C72.293 264.246 71.7617 262.664 71.7617 260.695V260.543ZM73.9414 260.801C73.9414 262.207 74.2656 263.336 74.9141 264.188C75.5703 265.039 76.4453 265.465 77.5391 265.465C78.6406 265.465 79.5156 265.035 80.1641 264.176C80.8125 263.309 81.1367 262.098 81.1367 260.543C81.1367 259.152 80.8047 258.027 80.1406 257.168C79.4844 256.301 78.6094 255.867 77.5156 255.867C76.4453 255.867 75.582 256.293 74.9258 257.145C74.2695 257.996 73.9414 259.215 73.9414 260.801ZM85.4961 260.555C85.4961 258.609 85.957 257.047 86.8789 255.867C87.8008 254.68 89.0078 254.086 90.5 254.086C91.9844 254.086 93.1602 254.594 94.0273 255.609V249H96.1953V267H94.2031L94.0977 265.641C93.2305 266.703 92.0234 267.234 90.4766 267.234C89.0078 267.234 87.8086 266.633 86.8789 265.43C85.957 264.227 85.4961 262.656 85.4961 260.719V260.555ZM87.6641 260.801C87.6641 262.238 87.9609 263.363 88.5547 264.176C89.1484 264.988 89.9688 265.395 91.0156 265.395C92.3906 265.395 93.3945 264.777 94.0273 263.543V257.719C93.3789 256.523 92.3828 255.926 91.0391 255.926C89.9766 255.926 89.1484 256.336 88.5547 257.156C87.9609 257.977 87.6641 259.191 87.6641 260.801ZM104.832 267.234C103.113 267.234 101.715 266.672 100.637 265.547C99.5586 264.414 99.0195 262.902 99.0195 261.012V260.613C99.0195 259.355 99.2578 258.234 99.7344 257.25C100.219 256.258 100.891 255.484 101.75 254.93C102.617 254.367 103.555 254.086 104.562 254.086C106.211 254.086 107.492 254.629 108.406 255.715C109.32 256.801 109.777 258.355 109.777 260.379V261.281H101.188C101.219 262.531 101.582 263.543 102.277 264.316C102.98 265.082 103.871 265.465 104.949 265.465C105.715 265.465 106.363 265.309 106.895 264.996C107.426 264.684 107.891 264.27 108.289 263.754L109.613 264.785C108.551 266.418 106.957 267.234 104.832 267.234ZM104.562 255.867C103.688 255.867 102.953 256.188 102.359 256.828C101.766 257.461 101.398 258.352 101.258 259.5H107.609V259.336C107.547 258.234 107.25 257.383 106.719 256.781C106.188 256.172 105.469 255.867 104.562 255.867ZM131.188 264.762C130.609 265.59 129.801 266.211 128.762 266.625C127.73 267.031 126.527 267.234 125.152 267.234C123.762 267.234 122.527 266.91 121.449 266.262C120.371 265.605 119.535 264.676 118.941 263.473C118.355 262.27 118.055 260.875 118.039 259.289V257.801C118.039 255.23 118.637 253.238 119.832 251.824C121.035 250.41 122.723 249.703 124.895 249.703C126.676 249.703 128.109 250.16 129.195 251.074C130.281 251.98 130.945 253.27 131.188 254.941H128.938C128.516 252.684 127.172 251.555 124.906 251.555C123.398 251.555 122.254 252.086 121.473 253.148C120.699 254.203 120.309 255.734 120.301 257.742V259.137C120.301 261.051 120.738 262.574 121.613 263.707C122.488 264.832 123.672 265.395 125.164 265.395C126.008 265.395 126.746 265.301 127.379 265.113C128.012 264.926 128.535 264.609 128.949 264.164V260.332H125V258.504H131.188V264.762ZM139.871 267.234C138.152 267.234 136.754 266.672 135.676 265.547C134.598 264.414 134.059 262.902 134.059 261.012V260.613C134.059 259.355 134.297 258.234 134.773 257.25C135.258 256.258 135.93 255.484 136.789 254.93C137.656 254.367 138.594 254.086 139.602 254.086C141.25 254.086 142.531 254.629 143.445 255.715C144.359 256.801 144.816 258.355 144.816 260.379V261.281H136.227C136.258 262.531 136.621 263.543 137.316 264.316C138.02 265.082 138.91 265.465 139.988 265.465C140.754 265.465 141.402 265.309 141.934 264.996C142.465 264.684 142.93 264.27 143.328 263.754L144.652 264.785C143.59 266.418 141.996 267.234 139.871 267.234ZM139.602 255.867C138.727 255.867 137.992 256.188 137.398 256.828C136.805 257.461 136.438 258.352 136.297 259.5H142.648V259.336C142.586 258.234 142.289 257.383 141.758 256.781C141.227 256.172 140.508 255.867 139.602 255.867ZM149.387 254.32L149.457 255.914C150.426 254.695 151.691 254.086 153.254 254.086C155.934 254.086 157.285 255.598 157.309 258.621V267H155.141V258.609C155.133 257.695 154.922 257.02 154.508 256.582C154.102 256.145 153.465 255.926 152.598 255.926C151.895 255.926 151.277 256.113 150.746 256.488C150.215 256.863 149.801 257.355 149.504 257.965V267H147.336V254.32H149.387ZM165.84 267.234C164.121 267.234 162.723 266.672 161.645 265.547C160.566 264.414 160.027 262.902 160.027 261.012V260.613C160.027 259.355 160.266 258.234 160.742 257.25C161.227 256.258 161.898 255.484 162.758 254.93C163.625 254.367 164.562 254.086 165.57 254.086C167.219 254.086 168.5 254.629 169.414 255.715C170.328 256.801 170.785 258.355 170.785 260.379V261.281H162.195C162.227 262.531 162.59 263.543 163.285 264.316C163.988 265.082 164.879 265.465 165.957 265.465C166.723 265.465 167.371 265.309 167.902 264.996C168.434 264.684 168.898 264.27 169.297 263.754L170.621 264.785C169.559 266.418 167.965 267.234 165.84 267.234ZM165.57 255.867C164.695 255.867 163.961 256.188 163.367 256.828C162.773 257.461 162.406 258.352 162.266 259.5H168.617V259.336C168.555 258.234 168.258 257.383 167.727 256.781C167.195 256.172 166.477 255.867 165.57 255.867ZM179.434 256.266C179.105 256.211 178.75 256.184 178.367 256.184C176.945 256.184 175.98 256.789 175.473 258V267H173.305V254.32H175.414L175.449 255.785C176.16 254.652 177.168 254.086 178.473 254.086C178.895 254.086 179.215 254.141 179.434 254.25V256.266ZM188.797 267C188.672 266.75 188.57 266.305 188.492 265.664C187.484 266.711 186.281 267.234 184.883 267.234C183.633 267.234 182.605 266.883 181.801 266.18C181.004 265.469 180.605 264.57 180.605 263.484C180.605 262.164 181.105 261.141 182.105 260.414C183.113 259.68 184.527 259.312 186.348 259.312H188.457V258.316C188.457 257.559 188.23 256.957 187.777 256.512C187.324 256.059 186.656 255.832 185.773 255.832C185 255.832 184.352 256.027 183.828 256.418C183.305 256.809 183.043 257.281 183.043 257.836H180.863C180.863 257.203 181.086 256.594 181.531 256.008C181.984 255.414 182.594 254.945 183.359 254.602C184.133 254.258 184.98 254.086 185.902 254.086C187.363 254.086 188.508 254.453 189.336 255.188C190.164 255.914 190.594 256.918 190.625 258.199V264.035C190.625 265.199 190.773 266.125 191.07 266.812V267H188.797ZM185.199 265.348C185.879 265.348 186.523 265.172 187.133 264.82C187.742 264.469 188.184 264.012 188.457 263.449V260.848H186.758C184.102 260.848 182.773 261.625 182.773 263.18C182.773 263.859 183 264.391 183.453 264.773C183.906 265.156 184.488 265.348 185.199 265.348ZM196.965 251.25V254.32H199.332V255.996H196.965V263.859C196.965 264.367 197.07 264.75 197.281 265.008C197.492 265.258 197.852 265.383 198.359 265.383C198.609 265.383 198.953 265.336 199.391 265.242V267C198.82 267.156 198.266 267.234 197.727 267.234C196.758 267.234 196.027 266.941 195.535 266.355C195.043 265.77 194.797 264.938 194.797 263.859V255.996H192.488V254.32H194.797V251.25H196.965ZM204.23 267H202.062V254.32H204.23V267ZM201.887 250.957C201.887 250.605 201.992 250.309 202.203 250.066C202.422 249.824 202.742 249.703 203.164 249.703C203.586 249.703 203.906 249.824 204.125 250.066C204.344 250.309 204.453 250.605 204.453 250.957C204.453 251.309 204.344 251.602 204.125 251.836C203.906 252.07 203.586 252.188 203.164 252.188C202.742 252.188 202.422 252.07 202.203 251.836C201.992 251.602 201.887 251.309 201.887 250.957ZM207.137 260.543C207.137 259.301 207.379 258.184 207.863 257.191C208.355 256.199 209.035 255.434 209.902 254.895C210.777 254.355 211.773 254.086 212.891 254.086C214.617 254.086 216.012 254.684 217.074 255.879C218.145 257.074 218.68 258.664 218.68 260.648V260.801C218.68 262.035 218.441 263.145 217.965 264.129C217.496 265.105 216.82 265.867 215.938 266.414C215.062 266.961 214.055 267.234 212.914 267.234C211.195 267.234 209.801 266.637 208.73 265.441C207.668 264.246 207.137 262.664 207.137 260.695V260.543ZM209.316 260.801C209.316 262.207 209.641 263.336 210.289 264.188C210.945 265.039 211.82 265.465 212.914 265.465C214.016 265.465 214.891 265.035 215.539 264.176C216.188 263.309 216.512 262.098 216.512 260.543C216.512 259.152 216.18 258.027 215.516 257.168C214.859 256.301 213.984 255.867 212.891 255.867C211.82 255.867 210.957 256.293 210.301 257.145C209.645 257.996 209.316 259.215 209.316 260.801ZM223.449 254.32L223.52 255.914C224.488 254.695 225.754 254.086 227.316 254.086C229.996 254.086 231.348 255.598 231.371 258.621V267H229.203V258.609C229.195 257.695 228.984 257.02 228.57 256.582C228.164 256.145 227.527 255.926 226.66 255.926C225.957 255.926 225.34 256.113 224.809 256.488C224.277 256.863 223.863 257.355 223.566 257.965V267H221.398V254.32H223.449Z" fill="black"/>
<path d="M622.727 63.5859C622.516 65.3906 621.848 66.7852 620.723 67.7695C619.605 68.7461 618.117 69.2344 616.258 69.2344C614.242 69.2344 612.625 68.5117 611.406 67.0664C610.195 65.6211 609.59 63.6875 609.59 61.2656V59.625C609.59 58.0391 609.871 56.6445 610.434 55.4414C611.004 54.2383 611.809 53.3164 612.848 52.6758C613.887 52.0273 615.09 51.7031 616.457 51.7031C618.27 51.7031 619.723 52.2109 620.816 53.2266C621.91 54.2344 622.547 55.6328 622.727 57.4219H620.465C620.27 56.0625 619.844 55.0781 619.188 54.4688C618.539 53.8594 617.629 53.5547 616.457 53.5547C615.02 53.5547 613.891 54.0859 613.07 55.1484C612.258 56.2109 611.852 57.7227 611.852 59.6836V61.3359C611.852 63.1875 612.238 64.6602 613.012 65.7539C613.785 66.8477 614.867 67.3945 616.258 67.3945C617.508 67.3945 618.465 67.1133 619.129 66.5508C619.801 65.9805 620.246 64.9922 620.465 63.5859H622.727ZM633.297 69C633.172 68.75 633.07 68.3047 632.992 67.6641C631.984 68.7109 630.781 69.2344 629.383 69.2344C628.133 69.2344 627.105 68.8828 626.301 68.1797C625.504 67.4688 625.105 66.5703 625.105 65.4844C625.105 64.1641 625.605 63.1406 626.605 62.4141C627.613 61.6797 629.027 61.3125 630.848 61.3125H632.957V60.3164C632.957 59.5586 632.73 58.957 632.277 58.5117C631.824 58.0586 631.156 57.832 630.273 57.832C629.5 57.832 628.852 58.0273 628.328 58.418C627.805 58.8086 627.543 59.2812 627.543 59.8359H625.363C625.363 59.2031 625.586 58.5938 626.031 58.0078C626.484 57.4141 627.094 56.9453 627.859 56.6016C628.633 56.2578 629.48 56.0859 630.402 56.0859C631.863 56.0859 633.008 56.4531 633.836 57.1875C634.664 57.9141 635.094 58.918 635.125 60.1992V66.0352C635.125 67.1992 635.273 68.125 635.57 68.8125V69H633.297ZM629.699 67.3477C630.379 67.3477 631.023 67.1719 631.633 66.8203C632.242 66.4688 632.684 66.0117 632.957 65.4492V62.8477H631.258C628.602 62.8477 627.273 63.625 627.273 65.1797C627.273 65.8594 627.5 66.3906 627.953 66.7734C628.406 67.1562 628.988 67.3477 629.699 67.3477ZM649.234 62.8008C649.234 64.7305 648.793 66.2852 647.91 67.4648C647.027 68.6445 645.832 69.2344 644.324 69.2344C642.785 69.2344 641.574 68.7461 640.691 67.7695V73.875H638.523V56.3203H640.504L640.609 57.7266C641.492 56.6328 642.719 56.0859 644.289 56.0859C645.812 56.0859 647.016 56.6602 647.898 57.8086C648.789 58.957 649.234 60.5547 649.234 62.6016V62.8008ZM647.066 62.5547C647.066 61.125 646.762 59.9961 646.152 59.168C645.543 58.3398 644.707 57.9258 643.645 57.9258C642.332 57.9258 641.348 58.5078 640.691 59.6719V65.7305C641.34 66.8867 642.332 67.4648 643.668 67.4648C644.707 67.4648 645.531 67.0547 646.141 66.2344C646.758 65.4062 647.066 64.1797 647.066 62.5547ZM651.801 56.7422L650.57 55.8984C651.297 54.8828 651.672 53.8125 651.695 52.6875V51H653.84V52.5234C653.832 53.3047 653.637 54.0859 653.254 54.8672C652.879 55.6406 652.395 56.2656 651.801 56.7422ZM658.27 56.3203L658.34 57.9141C659.309 56.6953 660.574 56.0859 662.137 56.0859C664.816 56.0859 666.168 57.5977 666.191 60.6211V69H664.023V60.6094C664.016 59.6953 663.805 59.0195 663.391 58.582C662.984 58.1445 662.348 57.9258 661.48 57.9258C660.777 57.9258 660.16 58.1133 659.629 58.4883C659.098 58.8633 658.684 59.3555 658.387 59.9648V69H656.219V56.3203H658.27ZM678.004 62.3203V69H675.754V51.9375H682.047C683.914 51.9375 685.375 52.4141 686.43 53.3672C687.492 54.3203 688.023 55.582 688.023 57.1523C688.023 58.8086 687.504 60.0859 686.465 60.9844C685.434 61.875 683.953 62.3203 682.023 62.3203H678.004ZM678.004 60.4805H682.047C683.25 60.4805 684.172 60.1992 684.812 59.6367C685.453 59.0664 685.773 58.2461 685.773 57.1758C685.773 56.1602 685.453 55.3477 684.812 54.7383C684.172 54.1289 683.293 53.8125 682.176 53.7891H678.004V60.4805ZM696.684 58.2656C696.355 58.2109 696 58.1836 695.617 58.1836C694.195 58.1836 693.23 58.7891 692.723 60V69H690.555V56.3203H692.664L692.699 57.7852C693.41 56.6523 694.418 56.0859 695.723 56.0859C696.145 56.0859 696.465 56.1406 696.684 56.25V58.2656ZM697.879 62.543C697.879 61.3008 698.121 60.1836 698.605 59.1914C699.098 58.1992 699.777 57.4336 700.645 56.8945C701.52 56.3555 702.516 56.0859 703.633 56.0859C705.359 56.0859 706.754 56.6836 707.816 57.8789C708.887 59.0742 709.422 60.6641 709.422 62.6484V62.8008C709.422 64.0352 709.184 65.1445 708.707 66.1289C708.238 67.1055 707.562 67.8672 706.68 68.4141C705.805 68.9609 704.797 69.2344 703.656 69.2344C701.938 69.2344 700.543 68.6367 699.473 67.4414C698.41 66.2461 697.879 64.6641 697.879 62.6953V62.543ZM700.059 62.8008C700.059 64.207 700.383 65.3359 701.031 66.1875C701.688 67.0391 702.562 67.4648 703.656 67.4648C704.758 67.4648 705.633 67.0352 706.281 66.1758C706.93 65.3086 707.254 64.0977 707.254 62.543C707.254 61.1523 706.922 60.0273 706.258 59.168C705.602 58.3008 704.727 57.8672 703.633 57.8672C702.562 57.8672 701.699 58.293 701.043 59.1445C700.387 59.9961 700.059 61.2148 700.059 62.8008ZM715.082 53.25V56.3203H717.449V57.9961H715.082V65.8594C715.082 66.3672 715.188 66.75 715.398 67.0078C715.609 67.2578 715.969 67.3828 716.477 67.3828C716.727 67.3828 717.07 67.3359 717.508 67.2422V69C716.938 69.1562 716.383 69.2344 715.844 69.2344C714.875 69.2344 714.145 68.9414 713.652 68.3555C713.16 67.7695 712.914 66.9375 712.914 65.8594V57.9961H710.605V56.3203H712.914V53.25H715.082ZM719.184 62.543C719.184 61.3008 719.426 60.1836 719.91 59.1914C720.402 58.1992 721.082 57.4336 721.949 56.8945C722.824 56.3555 723.82 56.0859 724.938 56.0859C726.664 56.0859 728.059 56.6836 729.121 57.8789C730.191 59.0742 730.727 60.6641 730.727 62.6484V62.8008C730.727 64.0352 730.488 65.1445 730.012 66.1289C729.543 67.1055 728.867 67.8672 727.984 68.4141C727.109 68.9609 726.102 69.2344 724.961 69.2344C723.242 69.2344 721.848 68.6367 720.777 67.4414C719.715 66.2461 719.184 64.6641 719.184 62.6953V62.543ZM721.363 62.8008C721.363 64.207 721.688 65.3359 722.336 66.1875C722.992 67.0391 723.867 67.4648 724.961 67.4648C726.062 67.4648 726.938 67.0352 727.586 66.1758C728.234 65.3086 728.559 64.0977 728.559 62.543C728.559 61.1523 728.227 60.0273 727.562 59.168C726.906 58.3008 726.031 57.8672 724.938 57.8672C723.867 57.8672 723.004 58.293 722.348 59.1445C721.691 59.9961 721.363 61.2148 721.363 62.8008Z" fill="black"/>
<path d="M802.098 57.8203L805.297 51.9375H809.34L804.371 60.3984L809.469 69H805.379L802.098 63.0234L798.816 69H794.727L799.824 60.3984L794.855 51.9375H798.898L802.098 57.8203ZM824.094 54.7852H818.867V69H815.352V54.7852H810.195V51.9375H824.094V54.7852ZM829.66 64.207L832.004 56.3203H835.637L830.539 70.9688L830.258 71.6367C829.5 73.293 828.25 74.1211 826.508 74.1211C826.016 74.1211 825.516 74.0469 825.008 73.8984V71.332L825.523 71.3438C826.164 71.3438 826.641 71.2461 826.953 71.0508C827.273 70.8555 827.523 70.5312 827.703 70.0781L828.102 69.0352L823.66 56.3203H827.305L829.66 64.207ZM848.387 62.7773C848.387 64.7305 847.941 66.2969 847.051 67.4766C846.168 68.6484 844.973 69.2344 843.465 69.2344C842.184 69.2344 841.148 68.7891 840.359 67.8984V73.875H836.973V56.3203H840.113L840.23 57.5625C841.051 56.5781 842.121 56.0859 843.441 56.0859C845.004 56.0859 846.219 56.6641 847.086 57.8203C847.953 58.9766 848.387 60.5703 848.387 62.6016V62.7773ZM845 62.5312C845 61.3516 844.789 60.4414 844.367 59.8008C843.953 59.1602 843.348 58.8398 842.551 58.8398C841.488 58.8398 840.758 59.2461 840.359 60.0586V65.25C840.773 66.0859 841.512 66.5039 842.574 66.5039C844.191 66.5039 845 65.1797 845 62.5312ZM856.332 69.2344C854.473 69.2344 852.957 68.6641 851.785 67.5234C850.621 66.3828 850.039 64.8633 850.039 62.9648V62.6367C850.039 61.3633 850.285 60.2266 850.777 59.2266C851.27 58.2188 851.965 57.4453 852.863 56.9062C853.77 56.3594 854.801 56.0859 855.957 56.0859C857.691 56.0859 859.055 56.6328 860.047 57.7266C861.047 58.8203 861.547 60.3711 861.547 62.3789V63.7617H853.473C853.582 64.5898 853.91 65.2539 854.457 65.7539C855.012 66.2539 855.711 66.5039 856.555 66.5039C857.859 66.5039 858.879 66.0312 859.613 65.0859L861.277 66.9492C860.77 67.668 860.082 68.2305 859.215 68.6367C858.348 69.0352 857.387 69.2344 856.332 69.2344ZM855.945 58.8281C855.273 58.8281 854.727 59.0547 854.305 59.5078C853.891 59.9609 853.625 60.6094 853.508 61.4531H858.219V61.1836C858.203 60.4336 858 59.8555 857.609 59.4492C857.219 59.0352 856.664 58.8281 855.945 58.8281ZM870.348 65.4961C870.348 65.082 870.141 64.7578 869.727 64.5234C869.32 64.2812 868.664 64.0664 867.758 63.8789C864.742 63.2461 863.234 61.9648 863.234 60.0352C863.234 58.9102 863.699 57.9727 864.629 57.2227C865.566 56.4648 866.789 56.0859 868.297 56.0859C869.906 56.0859 871.191 56.4648 872.152 57.2227C873.121 57.9805 873.605 58.9648 873.605 60.1758H870.219C870.219 59.6914 870.062 59.293 869.75 58.9805C869.438 58.6602 868.949 58.5 868.285 58.5C867.715 58.5 867.273 58.6289 866.961 58.8867C866.648 59.1445 866.492 59.4727 866.492 59.8711C866.492 60.2461 866.668 60.5508 867.02 60.7852C867.379 61.0117 867.98 61.2109 868.824 61.3828C869.668 61.5469 870.379 61.7344 870.957 61.9453C872.746 62.6016 873.641 63.7383 873.641 65.3555C873.641 66.5117 873.145 67.4492 872.152 68.168C871.16 68.8789 869.879 69.2344 868.309 69.2344C867.246 69.2344 866.301 69.0469 865.473 68.6719C864.652 68.2891 864.008 67.7695 863.539 67.1133C863.07 66.4492 862.836 65.7344 862.836 64.9688H866.047C866.078 65.5703 866.301 66.0312 866.715 66.3516C867.129 66.6719 867.684 66.832 868.379 66.832C869.027 66.832 869.516 66.7109 869.844 66.4688C870.18 66.2188 870.348 65.8945 870.348 65.4961Z" fill="black"/>
<path d="M305.672 40.3203V47H303.422V29.9375H309.715C311.582 29.9375 313.043 30.4141 314.098 31.3672C315.16 32.3203 315.691 33.582 315.691 35.1523C315.691 36.8086 315.172 38.0859 314.133 38.9844C313.102 39.875 311.621 40.3203 309.691 40.3203H305.672ZM305.672 38.4805H309.715C310.918 38.4805 311.84 38.1992 312.48 37.6367C313.121 37.0664 313.441 36.2461 313.441 35.1758C313.441 34.1602 313.121 33.3477 312.48 32.7383C311.84 32.1289 310.961 31.8125 309.844 31.7891H305.672V38.4805ZM324.352 36.2656C324.023 36.2109 323.668 36.1836 323.285 36.1836C321.863 36.1836 320.898 36.7891 320.391 38V47H318.223V34.3203H320.332L320.367 35.7852C321.078 34.6523 322.086 34.0859 323.391 34.0859C323.812 34.0859 324.133 34.1406 324.352 34.25V36.2656ZM325.547 40.543C325.547 39.3008 325.789 38.1836 326.273 37.1914C326.766 36.1992 327.445 35.4336 328.312 34.8945C329.188 34.3555 330.184 34.0859 331.301 34.0859C333.027 34.0859 334.422 34.6836 335.484 35.8789C336.555 37.0742 337.09 38.6641 337.09 40.6484V40.8008C337.09 42.0352 336.852 43.1445 336.375 44.1289C335.906 45.1055 335.23 45.8672 334.348 46.4141C333.473 46.9609 332.465 47.2344 331.324 47.2344C329.605 47.2344 328.211 46.6367 327.141 45.4414C326.078 44.2461 325.547 42.6641 325.547 40.6953V40.543ZM327.727 40.8008C327.727 42.207 328.051 43.3359 328.699 44.1875C329.355 45.0391 330.23 45.4648 331.324 45.4648C332.426 45.4648 333.301 45.0352 333.949 44.1758C334.598 43.3086 334.922 42.0977 334.922 40.543C334.922 39.1523 334.59 38.0273 333.926 37.168C333.27 36.3008 332.395 35.8672 331.301 35.8672C330.23 35.8672 329.367 36.293 328.711 37.1445C328.055 37.9961 327.727 39.2148 327.727 40.8008ZM342.75 31.25V34.3203H345.117V35.9961H342.75V43.8594C342.75 44.3672 342.855 44.75 343.066 45.0078C343.277 45.2578 343.637 45.3828 344.145 45.3828C344.395 45.3828 344.738 45.3359 345.176 45.2422V47C344.605 47.1562 344.051 47.2344 343.512 47.2344C342.543 47.2344 341.812 46.9414 341.32 46.3555C340.828 45.7695 340.582 44.9375 340.582 43.8594V35.9961H338.273V34.3203H340.582V31.25H342.75ZM346.852 40.543C346.852 39.3008 347.094 38.1836 347.578 37.1914C348.07 36.1992 348.75 35.4336 349.617 34.8945C350.492 34.3555 351.488 34.0859 352.605 34.0859C354.332 34.0859 355.727 34.6836 356.789 35.8789C357.859 37.0742 358.395 38.6641 358.395 40.6484V40.8008C358.395 42.0352 358.156 43.1445 357.68 44.1289C357.211 45.1055 356.535 45.8672 355.652 46.4141C354.777 46.9609 353.77 47.2344 352.629 47.2344C350.91 47.2344 349.516 46.6367 348.445 45.4414C347.383 44.2461 346.852 42.6641 346.852 40.6953V40.543ZM349.031 40.8008C349.031 42.207 349.355 43.3359 350.004 44.1875C350.66 45.0391 351.535 45.4648 352.629 45.4648C353.73 45.4648 354.605 45.0352 355.254 44.1758C355.902 43.3086 356.227 42.0977 356.227 40.543C356.227 39.1523 355.895 38.0273 355.23 37.168C354.574 36.3008 353.699 35.8672 352.605 35.8672C351.535 35.8672 350.672 36.293 350.016 37.1445C349.359 37.9961 349.031 39.2148 349.031 40.8008ZM366.199 45.4648C366.973 45.4648 367.648 45.2305 368.227 44.7617C368.805 44.293 369.125 43.707 369.188 43.0039H371.238C371.199 43.7305 370.949 44.4219 370.488 45.0781C370.027 45.7344 369.41 46.2578 368.637 46.6484C367.871 47.0391 367.059 47.2344 366.199 47.2344C364.473 47.2344 363.098 46.6602 362.074 45.5117C361.059 44.3555 360.551 42.7773 360.551 40.7773V40.4141C360.551 39.1797 360.777 38.082 361.23 37.1211C361.684 36.1602 362.332 35.4141 363.176 34.8828C364.027 34.3516 365.031 34.0859 366.188 34.0859C367.609 34.0859 368.789 34.5117 369.727 35.3633C370.672 36.2148 371.176 37.3203 371.238 38.6797H369.188C369.125 37.8594 368.812 37.1875 368.25 36.6641C367.695 36.1328 367.008 35.8672 366.188 35.8672C365.086 35.8672 364.23 36.2656 363.621 37.0625C363.02 37.8516 362.719 38.9961 362.719 40.4961V40.9062C362.719 42.3672 363.02 43.4922 363.621 44.2812C364.223 45.0703 365.082 45.4648 366.199 45.4648ZM373.102 40.543C373.102 39.3008 373.344 38.1836 373.828 37.1914C374.32 36.1992 375 35.4336 375.867 34.8945C376.742 34.3555 377.738 34.0859 378.855 34.0859C380.582 34.0859 381.977 34.6836 383.039 35.8789C384.109 37.0742 384.645 38.6641 384.645 40.6484V40.8008C384.645 42.0352 384.406 43.1445 383.93 44.1289C383.461 45.1055 382.785 45.8672 381.902 46.4141C381.027 46.9609 380.02 47.2344 378.879 47.2344C377.16 47.2344 375.766 46.6367 374.695 45.4414C373.633 44.2461 373.102 42.6641 373.102 40.6953V40.543ZM375.281 40.8008C375.281 42.207 375.605 43.3359 376.254 44.1875C376.91 45.0391 377.785 45.4648 378.879 45.4648C379.98 45.4648 380.855 45.0352 381.504 44.1758C382.152 43.3086 382.477 42.0977 382.477 40.543C382.477 39.1523 382.145 38.0273 381.48 37.168C380.824 36.3008 379.949 35.8672 378.855 35.8672C377.785 35.8672 376.922 36.293 376.266 37.1445C375.609 37.9961 375.281 39.2148 375.281 40.8008ZM389.719 47H387.551V29H389.719V47ZM309.562 75V57.9375H315.141C316.992 57.9375 318.383 58.3203 319.312 59.0859C320.25 59.8516 320.719 60.9844 320.719 62.4844C320.719 63.2812 320.492 63.9883 320.039 64.6055C319.586 65.2148 318.969 65.6875 318.188 66.0234C319.109 66.2812 319.836 66.7734 320.367 67.5C320.906 68.2188 321.176 69.0781 321.176 70.0781C321.176 71.6094 320.68 72.8125 319.688 73.6875C318.695 74.5625 317.293 75 315.48 75H309.562ZM311.812 67.0195V73.1602H315.527C316.574 73.1602 317.398 72.8906 318 72.3516C318.609 71.8047 318.914 71.0547 318.914 70.1016C318.914 68.0469 317.797 67.0195 315.562 67.0195H311.812ZM311.812 65.2148H315.211C316.195 65.2148 316.98 64.9688 317.566 64.4766C318.16 63.9844 318.457 63.3164 318.457 62.4727C318.457 61.5352 318.184 60.8555 317.637 60.4336C317.09 60.0039 316.258 59.7891 315.141 59.7891H311.812V65.2148ZM332.004 73.7461C331.16 74.7383 329.922 75.2344 328.289 75.2344C326.938 75.2344 325.906 74.8438 325.195 74.0625C324.492 73.2734 324.137 72.1094 324.129 70.5703V62.3203H326.297V70.5117C326.297 72.4336 327.078 73.3945 328.641 73.3945C330.297 73.3945 331.398 72.7773 331.945 71.543V62.3203H334.113V75H332.051L332.004 73.7461ZM338.484 75V63.9961H336.48V62.3203H338.484V61.0195C338.484 59.6602 338.848 58.6094 339.574 57.8672C340.301 57.125 341.328 56.7539 342.656 56.7539C343.156 56.7539 343.652 56.8203 344.145 56.9531L344.027 58.7109C343.66 58.6406 343.27 58.6055 342.855 58.6055C342.152 58.6055 341.609 58.8125 341.227 59.2266C340.844 59.6328 340.652 60.2188 340.652 60.9844V62.3203H343.359V63.9961H340.652V75H338.484ZM346.828 75V63.9961H344.824V62.3203H346.828V61.0195C346.828 59.6602 347.191 58.6094 347.918 57.8672C348.645 57.125 349.672 56.7539 351 56.7539C351.5 56.7539 351.996 56.8203 352.488 56.9531L352.371 58.7109C352.004 58.6406 351.613 58.6055 351.199 58.6055C350.496 58.6055 349.953 58.8125 349.57 59.2266C349.188 59.6328 348.996 60.2188 348.996 60.9844V62.3203H351.703V63.9961H348.996V75H346.828ZM359.086 75.2344C357.367 75.2344 355.969 74.6719 354.891 73.5469C353.812 72.4141 353.273 70.9023 353.273 69.0117V68.6133C353.273 67.3555 353.512 66.2344 353.988 65.25C354.473 64.2578 355.145 63.4844 356.004 62.9297C356.871 62.3672 357.809 62.0859 358.816 62.0859C360.465 62.0859 361.746 62.6289 362.66 63.7148C363.574 64.8008 364.031 66.3555 364.031 68.3789V69.2812H355.441C355.473 70.5312 355.836 71.543 356.531 72.3164C357.234 73.082 358.125 73.4648 359.203 73.4648C359.969 73.4648 360.617 73.3086 361.148 72.9961C361.68 72.6836 362.145 72.2695 362.543 71.7539L363.867 72.7852C362.805 74.418 361.211 75.2344 359.086 75.2344ZM358.816 63.8672C357.941 63.8672 357.207 64.1875 356.613 64.8281C356.02 65.4609 355.652 66.3516 355.512 67.5H361.863V67.3359C361.801 66.2344 361.504 65.3828 360.973 64.7812C360.441 64.1719 359.723 63.8672 358.816 63.8672ZM372.68 64.2656C372.352 64.2109 371.996 64.1836 371.613 64.1836C370.191 64.1836 369.227 64.7891 368.719 66V75H366.551V62.3203H368.66L368.695 63.7852C369.406 62.6523 370.414 62.0859 371.719 62.0859C372.141 62.0859 372.461 62.1406 372.68 62.25V64.2656ZM382.066 71.6367C382.066 71.0508 381.844 70.5977 381.398 70.2773C380.961 69.9492 380.191 69.668 379.09 69.4336C377.996 69.1992 377.125 68.918 376.477 68.5898C375.836 68.2617 375.359 67.8711 375.047 67.418C374.742 66.9648 374.59 66.4258 374.59 65.8008C374.59 64.7617 375.027 63.8828 375.902 63.1641C376.785 62.4453 377.91 62.0859 379.277 62.0859C380.715 62.0859 381.879 62.457 382.77 63.1992C383.668 63.9414 384.117 64.8906 384.117 66.0469H381.938C381.938 65.4531 381.684 64.9414 381.176 64.5117C380.676 64.082 380.043 63.8672 379.277 63.8672C378.488 63.8672 377.871 64.0391 377.426 64.3828C376.98 64.7266 376.758 65.1758 376.758 65.7305C376.758 66.2539 376.965 66.6484 377.379 66.9141C377.793 67.1797 378.539 67.4336 379.617 67.6758C380.703 67.918 381.582 68.207 382.254 68.543C382.926 68.8789 383.422 69.2852 383.742 69.7617C384.07 70.2305 384.234 70.8047 384.234 71.4844C384.234 72.6172 383.781 73.5273 382.875 74.2148C381.969 74.8945 380.793 75.2344 379.348 75.2344C378.332 75.2344 377.434 75.0547 376.652 74.6953C375.871 74.3359 375.258 73.8359 374.812 73.1953C374.375 72.5469 374.156 71.8477 374.156 71.0977H376.324C376.363 71.8242 376.652 72.4023 377.191 72.832C377.738 73.2539 378.457 73.4648 379.348 73.4648C380.168 73.4648 380.824 73.3008 381.316 72.9727C381.816 72.6367 382.066 72.1914 382.066 71.6367Z" fill="black"/>
<rect x="257.5" y="89.5" width="659" height="67" fill="#EEEEEE" fill-opacity="0.5" stroke="#CECECE"/>
<rect x="257.5" y="225.5" width="659" height="67" fill="#EEEEEE" fill-opacity="0.5" stroke="#CECECE"/>
<rect x="257.5" y="157.5" width="659" height="67" fill="#DDDDDD" fill-opacity="0.5" stroke="#CECECE"/>
<rect x="257" y="89" width="495" height="204" fill="#6D85FF" fill-opacity="0.6"/>
<rect x="752" y="89" width="165" height="68" fill="#6D85FF" fill-opacity="0.6"/>
<path d="M814.121 199V181.938H819.699C821.551 181.938 822.941 182.32 823.871 183.086C824.809 183.852 825.277 184.984 825.277 186.484C825.277 187.281 825.051 187.988 824.598 188.605C824.145 189.215 823.527 189.688 822.746 190.023C823.668 190.281 824.395 190.773 824.926 191.5C825.465 192.219 825.734 193.078 825.734 194.078C825.734 195.609 825.238 196.812 824.246 197.688C823.254 198.562 821.852 199 820.039 199H814.121ZM816.371 191.02V197.16H820.086C821.133 197.16 821.957 196.891 822.559 196.352C823.168 195.805 823.473 195.055 823.473 194.102C823.473 192.047 822.355 191.02 820.121 191.02H816.371ZM816.371 189.215H819.77C820.754 189.215 821.539 188.969 822.125 188.477C822.719 187.984 823.016 187.316 823.016 186.473C823.016 185.535 822.742 184.855 822.195 184.434C821.648 184.004 820.816 183.789 819.699 183.789H816.371V189.215ZM833.621 190.504L838.074 181.938H840.629L834.746 192.637V199H832.496V192.637L826.613 181.938H829.191L833.621 190.504ZM855.605 191.02C855.605 192.691 855.324 194.152 854.762 195.402C854.199 196.645 853.402 197.594 852.371 198.25C851.34 198.906 850.137 199.234 848.762 199.234C847.418 199.234 846.227 198.906 845.188 198.25C844.148 197.586 843.34 196.645 842.762 195.426C842.191 194.199 841.898 192.781 841.883 191.172V189.941C841.883 188.301 842.168 186.852 842.738 185.594C843.309 184.336 844.113 183.375 845.152 182.711C846.199 182.039 847.395 181.703 848.738 181.703C850.105 181.703 851.309 182.035 852.348 182.699C853.395 183.355 854.199 184.312 854.762 185.57C855.324 186.82 855.605 188.277 855.605 189.941V191.02ZM853.367 189.918C853.367 187.895 852.961 186.344 852.148 185.266C851.336 184.18 850.199 183.637 848.738 183.637C847.316 183.637 846.195 184.18 845.375 185.266C844.562 186.344 844.145 187.844 844.121 189.766V191.02C844.121 192.98 844.531 194.523 845.352 195.648C846.18 196.766 847.316 197.324 848.762 197.324C850.215 197.324 851.34 196.797 852.137 195.742C852.934 194.68 853.344 193.16 853.367 191.184V189.918Z" fill="black"/>
<path d="M814.121 267V249.938H819.699C821.551 249.938 822.941 250.32 823.871 251.086C824.809 251.852 825.277 252.984 825.277 254.484C825.277 255.281 825.051 255.988 824.598 256.605C824.145 257.215 823.527 257.688 822.746 258.023C823.668 258.281 824.395 258.773 824.926 259.5C825.465 260.219 825.734 261.078 825.734 262.078C825.734 263.609 825.238 264.812 824.246 265.688C823.254 266.562 821.852 267 820.039 267H814.121ZM816.371 259.02V265.16H820.086C821.133 265.16 821.957 264.891 822.559 264.352C823.168 263.805 823.473 263.055 823.473 262.102C823.473 260.047 822.355 259.02 820.121 259.02H816.371ZM816.371 257.215H819.77C820.754 257.215 821.539 256.969 822.125 256.477C822.719 255.984 823.016 255.316 823.016 254.473C823.016 253.535 822.742 252.855 822.195 252.434C821.648 252.004 820.816 251.789 819.699 251.789H816.371V257.215ZM833.621 258.504L838.074 249.938H840.629L834.746 260.637V267H832.496V260.637L826.613 249.938H829.191L833.621 258.504ZM855.605 259.02C855.605 260.691 855.324 262.152 854.762 263.402C854.199 264.645 853.402 265.594 852.371 266.25C851.34 266.906 850.137 267.234 848.762 267.234C847.418 267.234 846.227 266.906 845.188 266.25C844.148 265.586 843.34 264.645 842.762 263.426C842.191 262.199 841.898 260.781 841.883 259.172V257.941C841.883 256.301 842.168 254.852 842.738 253.594C843.309 252.336 844.113 251.375 845.152 250.711C846.199 250.039 847.395 249.703 848.738 249.703C850.105 249.703 851.309 250.035 852.348 250.699C853.395 251.355 854.199 252.312 854.762 253.57C855.324 254.82 855.605 256.277 855.605 257.941V259.02ZM853.367 257.918C853.367 255.895 852.961 254.344 852.148 253.266C851.336 252.18 850.199 251.637 848.738 251.637C847.316 251.637 846.195 252.18 845.375 253.266C844.562 254.344 844.145 255.844 844.121 257.766V259.02C844.121 260.98 844.531 262.523 845.352 263.648C846.18 264.766 847.316 265.324 848.762 265.324C850.215 265.324 851.34 264.797 852.137 263.742C852.934 262.68 853.344 261.16 853.367 259.184V257.918Z" fill="black"/>
<g filter="url(#filter4_d)">
<path d="M663 204L654 195L657.5 191.5L663 197L682 179.5L685.5 182.5L663 204Z" fill="#0038FF"/>
</g>
<g filter="url(#filter5_d)">
<path d="M663 135.5L654 126.5L657.5 123L663 128.5L682 111L685.5 114L663 135.5Z" fill="#0038FF"/>
</g>
<g filter="url(#filter6_d)">
<path d="M828 135.5L819 126.5L822.5 123L828 128.5L847 111L850.5 114L828 135.5Z" fill="#0038FF"/>
</g>
<g filter="url(#filter7_d)">
<path d="M663 271.5L654 262.5L657.5 259L663 264.5L682 247L685.5 250L663 271.5Z" fill="#0038FF"/>
</g>
<g filter="url(#filter8_d)">
<path d="M497 202L488 193L491.5 189.5L497 195L516 177.5L519.5 180.5L497 202Z" fill="#0038FF"/>
</g>
<g filter="url(#filter9_d)">
<path d="M497 133.5L488 124.5L491.5 121L497 126.5L516 109L519.5 112L497 133.5Z" fill="#0038FF"/>
</g>
<g filter="url(#filter10_d)">
<path d="M497 269.5L488 260.5L491.5 257L497 262.5L516 245L519.5 248L497 269.5Z" fill="#0038FF"/>
</g>
<g filter="url(#filter11_d)">
<path d="M339 204L330 195L333.5 191.5L339 197L358 179.5L361.5 182.5L339 204Z" fill="#0038FF"/>
</g>
<g filter="url(#filter12_d)">
<path d="M339 135.5L330 126.5L333.5 123L339 128.5L358 111L361.5 114L339 135.5Z" fill="#0038FF"/>
</g>
<g filter="url(#filter13_d)">
<path d="M339 271.5L330 262.5L333.5 259L339 264.5L358 247L361.5 250L339 271.5Z" fill="#0038FF"/>
</g>
<defs>
<filter id="filter0_d" x="253" y="89" width="173" height="212" filterUnits="userSpaceOnUse" color-interpolation-filters="sRGB">
<feFlood flood-opacity="0" result="BackgroundImageFix"/>
<feColorMatrix in="SourceAlpha" type="matrix" values="0 0 0 0 0 0 0 0 0 0 0 0 0 0 0 0 0 0 127 0"/>
<feOffset dy="4"/>
<feGaussianBlur stdDeviation="2"/>
<feColorMatrix type="matrix" values="0 0 0 0 0 0 0 0 0 0 0 0 0 0 0 0 0 0 0.25 0"/>
<feBlend mode="normal" in2="BackgroundImageFix" result="effect1_dropShadow"/>
<feBlend mode="normal" in="SourceGraphic" in2="effect1_dropShadow" result="shape"/>
</filter>
<filter id="filter1_d" x="418" y="89" width="173" height="212" filterUnits="userSpaceOnUse" color-interpolation-filters="sRGB">
<feFlood flood-opacity="0" result="BackgroundImageFix"/>
<feColorMatrix in="SourceAlpha" type="matrix" values="0 0 0 0 0 0 0 0 0 0 0 0 0 0 0 0 0 0 127 0"/>
<feOffset dy="4"/>
<feGaussianBlur stdDeviation="2"/>
<feColorMatrix type="matrix" values="0 0 0 0 0 0 0 0 0 0 0 0 0 0 0 0 0 0 0.25 0"/>
<feBlend mode="normal" in2="BackgroundImageFix" result="effect1_dropShadow"/>
<feBlend mode="normal" in="SourceGraphic" in2="effect1_dropShadow" result="shape"/>
</filter>
<filter id="filter2_d" x="583" y="89" width="173" height="212" filterUnits="userSpaceOnUse" color-interpolation-filters="sRGB">
<feFlood flood-opacity="0" result="BackgroundImageFix"/>
<feColorMatrix in="SourceAlpha" type="matrix" values="0 0 0 0 0 0 0 0 0 0 0 0 0 0 0 0 0 0 127 0"/>
<feOffset dy="4"/>
<feGaussianBlur stdDeviation="2"/>
<feColorMatrix type="matrix" values="0 0 0 0 0 0 0 0 0 0 0 0 0 0 0 0 0 0 0.25 0"/>
<feBlend mode="normal" in2="BackgroundImageFix" result="effect1_dropShadow"/>
<feBlend mode="normal" in="SourceGraphic" in2="effect1_dropShadow" result="shape"/>
</filter>
<filter id="filter3_d" x="748" y="89" width="173" height="212" filterUnits="userSpaceOnUse" color-interpolation-filters="sRGB">
<feFlood flood-opacity="0" result="BackgroundImageFix"/>
<feColorMatrix in="SourceAlpha" type="matrix" values="0 0 0 0 0 0 0 0 0 0 0 0 0 0 0 0 0 0 127 0"/>
<feOffset dy="4"/>
<feGaussianBlur stdDeviation="2"/>
<feColorMatrix type="matrix" values="0 0 0 0 0 0 0 0 0 0 0 0 0 0 0 0 0 0 0.25 0"/>
<feBlend mode="normal" in2="BackgroundImageFix" result="effect1_dropShadow"/>
<feBlend mode="normal" in="SourceGraphic" in2="effect1_dropShadow" result="shape"/>
</filter>
<filter id="filter4_d" x="650" y="179.5" width="39.5" height="32.5" filterUnits="userSpaceOnUse" color-interpolation-filters="sRGB">
<feFlood flood-opacity="0" result="BackgroundImageFix"/>
<feColorMatrix in="SourceAlpha" type="matrix" values="0 0 0 0 0 0 0 0 0 0 0 0 0 0 0 0 0 0 127 0"/>
<feOffset dy="4"/>
<feGaussianBlur stdDeviation="2"/>
<feColorMatrix type="matrix" values="0 0 0 0 0 0 0 0 0 0 0 0 0 0 0 0 0 0 0.25 0"/>
<feBlend mode="normal" in2="BackgroundImageFix" result="effect1_dropShadow"/>
<feBlend mode="normal" in="SourceGraphic" in2="effect1_dropShadow" result="shape"/>
</filter>
<filter id="filter5_d" x="650" y="111" width="39.5" height="32.5" filterUnits="userSpaceOnUse" color-interpolation-filters="sRGB">
<feFlood flood-opacity="0" result="BackgroundImageFix"/>
<feColorMatrix in="SourceAlpha" type="matrix" values="0 0 0 0 0 0 0 0 0 0 0 0 0 0 0 0 0 0 127 0"/>
<feOffset dy="4"/>
<feGaussianBlur stdDeviation="2"/>
<feColorMatrix type="matrix" values="0 0 0 0 0 0 0 0 0 0 0 0 0 0 0 0 0 0 0.25 0"/>
<feBlend mode="normal" in2="BackgroundImageFix" result="effect1_dropShadow"/>
<feBlend mode="normal" in="SourceGraphic" in2="effect1_dropShadow" result="shape"/>
</filter>
<filter id="filter6_d" x="815" y="111" width="39.5" height="32.5" filterUnits="userSpaceOnUse" color-interpolation-filters="sRGB">
<feFlood flood-opacity="0" result="BackgroundImageFix"/>
<feColorMatrix in="SourceAlpha" type="matrix" values="0 0 0 0 0 0 0 0 0 0 0 0 0 0 0 0 0 0 127 0"/>
<feOffset dy="4"/>
<feGaussianBlur stdDeviation="2"/>
<feColorMatrix type="matrix" values="0 0 0 0 0 0 0 0 0 0 0 0 0 0 0 0 0 0 0.25 0"/>
<feBlend mode="normal" in2="BackgroundImageFix" result="effect1_dropShadow"/>
<feBlend mode="normal" in="SourceGraphic" in2="effect1_dropShadow" result="shape"/>
</filter>
<filter id="filter7_d" x="650" y="247" width="39.5" height="32.5" filterUnits="userSpaceOnUse" color-interpolation-filters="sRGB">
<feFlood flood-opacity="0" result="BackgroundImageFix"/>
<feColorMatrix in="SourceAlpha" type="matrix" values="0 0 0 0 0 0 0 0 0 0 0 0 0 0 0 0 0 0 127 0"/>
<feOffset dy="4"/>
<feGaussianBlur stdDeviation="2"/>
<feColorMatrix type="matrix" values="0 0 0 0 0 0 0 0 0 0 0 0 0 0 0 0 0 0 0.25 0"/>
<feBlend mode="normal" in2="BackgroundImageFix" result="effect1_dropShadow"/>
<feBlend mode="normal" in="SourceGraphic" in2="effect1_dropShadow" result="shape"/>
</filter>
<filter id="filter8_d" x="484" y="177.5" width="39.5" height="32.5" filterUnits="userSpaceOnUse" color-interpolation-filters="sRGB">
<feFlood flood-opacity="0" result="BackgroundImageFix"/>
<feColorMatrix in="SourceAlpha" type="matrix" values="0 0 0 0 0 0 0 0 0 0 0 0 0 0 0 0 0 0 127 0"/>
<feOffset dy="4"/>
<feGaussianBlur stdDeviation="2"/>
<feColorMatrix type="matrix" values="0 0 0 0 0 0 0 0 0 0 0 0 0 0 0 0 0 0 0.25 0"/>
<feBlend mode="normal" in2="BackgroundImageFix" result="effect1_dropShadow"/>
<feBlend mode="normal" in="SourceGraphic" in2="effect1_dropShadow" result="shape"/>
</filter>
<filter id="filter9_d" x="484" y="109" width="39.5" height="32.5" filterUnits="userSpaceOnUse" color-interpolation-filters="sRGB">
<feFlood flood-opacity="0" result="BackgroundImageFix"/>
<feColorMatrix in="SourceAlpha" type="matrix" values="0 0 0 0 0 0 0 0 0 0 0 0 0 0 0 0 0 0 127 0"/>
<feOffset dy="4"/>
<feGaussianBlur stdDeviation="2"/>
<feColorMatrix type="matrix" values="0 0 0 0 0 0 0 0 0 0 0 0 0 0 0 0 0 0 0.25 0"/>
<feBlend mode="normal" in2="BackgroundImageFix" result="effect1_dropShadow"/>
<feBlend mode="normal" in="SourceGraphic" in2="effect1_dropShadow" result="shape"/>
</filter>
<filter id="filter10_d" x="484" y="245" width="39.5" height="32.5" filterUnits="userSpaceOnUse" color-interpolation-filters="sRGB">
<feFlood flood-opacity="0" result="BackgroundImageFix"/>
<feColorMatrix in="SourceAlpha" type="matrix" values="0 0 0 0 0 0 0 0 0 0 0 0 0 0 0 0 0 0 127 0"/>
<feOffset dy="4"/>
<feGaussianBlur stdDeviation="2"/>
<feColorMatrix type="matrix" values="0 0 0 0 0 0 0 0 0 0 0 0 0 0 0 0 0 0 0.25 0"/>
<feBlend mode="normal" in2="BackgroundImageFix" result="effect1_dropShadow"/>
<feBlend mode="normal" in="SourceGraphic" in2="effect1_dropShadow" result="shape"/>
</filter>
<filter id="filter11_d" x="326" y="179.5" width="39.5" height="32.5" filterUnits="userSpaceOnUse" color-interpolation-filters="sRGB">
<feFlood flood-opacity="0" result="BackgroundImageFix"/>
<feColorMatrix in="SourceAlpha" type="matrix" values="0 0 0 0 0 0 0 0 0 0 0 0 0 0 0 0 0 0 127 0"/>
<feOffset dy="4"/>
<feGaussianBlur stdDeviation="2"/>
<feColorMatrix type="matrix" values="0 0 0 0 0 0 0 0 0 0 0 0 0 0 0 0 0 0 0.25 0"/>
<feBlend mode="normal" in2="BackgroundImageFix" result="effect1_dropShadow"/>
<feBlend mode="normal" in="SourceGraphic" in2="effect1_dropShadow" result="shape"/>
</filter>
<filter id="filter12_d" x="326" y="111" width="39.5" height="32.5" filterUnits="userSpaceOnUse" color-interpolation-filters="sRGB">
<feFlood flood-opacity="0" result="BackgroundImageFix"/>
<feColorMatrix in="SourceAlpha" type="matrix" values="0 0 0 0 0 0 0 0 0 0 0 0 0 0 0 0 0 0 127 0"/>
<feOffset dy="4"/>
<feGaussianBlur stdDeviation="2"/>
<feColorMatrix type="matrix" values="0 0 0 0 0 0 0 0 0 0 0 0 0 0 0 0 0 0 0.25 0"/>
<feBlend mode="normal" in2="BackgroundImageFix" result="effect1_dropShadow"/>
<feBlend mode="normal" in="SourceGraphic" in2="effect1_dropShadow" result="shape"/>
</filter>
<filter id="filter13_d" x="326" y="247" width="39.5" height="32.5" filterUnits="userSpaceOnUse" color-interpolation-filters="sRGB">
<feFlood flood-opacity="0" result="BackgroundImageFix"/>
<feColorMatrix in="SourceAlpha" type="matrix" values="0 0 0 0 0 0 0 0 0 0 0 0 0 0 0 0 0 0 127 0"/>
<feOffset dy="4"/>
<feGaussianBlur stdDeviation="2"/>
<feColorMatrix type="matrix" values="0 0 0 0 0 0 0 0 0 0 0 0 0 0 0 0 0 0 0.25 0"/>
<feBlend mode="normal" in2="BackgroundImageFix" result="effect1_dropShadow"/>
<feBlend mode="normal" in="SourceGraphic" in2="effect1_dropShadow" result="shape"/>
</filter>
</defs>
</svg>
